<svg width="16" height="17" viewBox="0 0 16 17" fill="none" xmlns="http://www.w3.org/2000/svg">
<path d="M14.4201 11.6942H5.11537L5.58256 10.7427L13.3451 10.7286C13.6076 10.7286 13.8326 10.5411 13.8794 10.2817L14.9544 4.26455C14.9826 4.10674 14.9404 3.94424 14.8372 3.8208C14.7863 3.76005 14.7227 3.71112 14.6509 3.67739C14.5792 3.64366 14.5009 3.62595 14.4216 3.62549L4.54662 3.59268L4.46224 3.1958C4.40912 2.94268 4.18099 2.7583 3.92162 2.7583H1.50756C1.36127 2.7583 1.22098 2.81641 1.11754 2.91985C1.0141 3.02329 0.955994 3.16358 0.955994 3.30986C0.955994 3.45615 1.0141 3.59644 1.11754 3.69988C1.22098 3.80331 1.36127 3.86143 1.50756 3.86143H3.47474L3.84349 5.61455L4.75131 10.0099L3.58256 11.9177C3.52186 11.9996 3.4853 12.0969 3.47702 12.1985C3.46874 12.3001 3.48906 12.402 3.53568 12.4927C3.62943 12.6786 3.81849 12.7958 4.02787 12.7958H5.00912C4.79993 13.0736 4.68694 13.4121 4.68724 13.7599C4.68724 14.6442 5.40599 15.363 6.29037 15.363C7.17474 15.363 7.89349 14.6442 7.89349 13.7599C7.89349 13.4114 7.77787 13.0724 7.57162 12.7958H10.0888C9.87962 13.0736 9.76662 13.4121 9.76693 13.7599C9.76693 14.6442 10.4857 15.363 11.3701 15.363C12.2544 15.363 12.9732 14.6442 12.9732 13.7599C12.9732 13.4114 12.8576 13.0724 12.6513 12.7958H14.4216C14.7247 12.7958 14.9732 12.5489 14.9732 12.2442C14.9723 12.0981 14.9136 11.9583 14.81 11.8552C14.7064 11.7522 14.5662 11.6943 14.4201 11.6942V11.6942ZM4.77631 4.68018L13.7732 4.70986L12.8919 9.64424L5.82474 9.65674L4.77631 4.68018ZM6.29037 14.2536C6.01849 14.2536 5.79662 14.0317 5.79662 13.7599C5.79662 13.488 6.01849 13.2661 6.29037 13.2661C6.56224 13.2661 6.78412 13.488 6.78412 13.7599C6.78412 13.8908 6.7321 14.0164 6.6395 14.109C6.54691 14.2016 6.42132 14.2536 6.29037 14.2536V14.2536ZM11.3701 14.2536C11.0982 14.2536 10.8763 14.0317 10.8763 13.7599C10.8763 13.488 11.0982 13.2661 11.3701 13.2661C11.6419 13.2661 11.8638 13.488 11.8638 13.7599C11.8638 13.8908 11.8118 14.0164 11.7192 14.109C11.6266 14.2016 11.501 14.2536 11.3701 14.2536V14.2536Z" fill="white"/>
</svg>
